<?xml version="1.0" encoding="UTF-8" standalone="no"?><svg xmlns="http://www.w3.org/2000/svg" xmlns:xlink="http://www.w3.org/1999/xlink" contentStyleType="text/css" height="178px" preserveAspectRatio="none" style="width:1779px;height:178px;background:#FFFFFF;" version="1.1" viewBox="0 0 1779 178" width="1779px" zoomAndPan="magnify"><defs/><g><rect fill="#F1F1F1" height="37.6094" rx="12.5" ry="12.5" style="stroke:#181818;stroke-width:1.5;" width="132" x="900" y="69.6328"/><text fill="#000000" font-family="sans-serif" font-size="14" lengthAdjust="spacing" textLength="112" x="910" y="94.166">アプリケーション</text><text fill="#000000" font-family="sans-serif" font-size="14" lengthAdjust="spacing" textLength="126" x="1085" y="94.166">クライアントサイド</text><text fill="#000000" font-family="sans-serif" font-size="14" lengthAdjust="spacing" textLength="84" x="1264" y="25.5332">jQuery不使用</text><path d="M1211,88.4375 L1221,88.4375 C1236,88.4375 1236,19.8047 1251,19.8047 L1261,19.8047 " fill="none" style="stroke:#181818;stroke-width:1.0;"/><text fill="#000000" font-family="sans-serif" font-size="14" lengthAdjust="spacing" textLength="98" x="1264" y="45.1426">ライブラリ導入</text><text fill="#000000" font-family="sans-serif" font-size="14" lengthAdjust="spacing" textLength="47" x="1415" y="45.1426">Node.js</text><text fill="#000000" font-family="sans-serif" font-size="14" lengthAdjust="spacing" textLength="252" x="1515" y="45.1426">クライアントサイド向けライブラリ導入</text><path d="M1462,39.4141 L1472,39.4141 C1487,39.4141 1487,39.4141 1502,39.4141 L1512,39.4141 " fill="none" style="stroke:#181818;stroke-width:1.0;"/><path d="M1362,39.4141 L1372,39.4141 C1387,39.4141 1387,39.4141 1402,39.4141 L1412,39.4141 " fill="none" style="stroke:#181818;stroke-width:1.0;"/><path d="M1211,88.4375 L1221,88.4375 C1236,88.4375 1236,39.4141 1251,39.4141 L1261,39.4141 " fill="none" style="stroke:#181818;stroke-width:1.0;"/><text fill="#000000" font-family="sans-serif" font-size="14" lengthAdjust="spacing" textLength="154" x="1264" y="84.3613">画面の動作やレイアウト</text><text fill="#000000" font-family="sans-serif" font-size="14" lengthAdjust="spacing" textLength="56" x="1471" y="64.752">テーブル</text><path d="M1418,78.6328 L1428,78.6328 C1443,78.6328 1443,59.0234 1458,59.0234 L1468,59.0234 " fill="none" style="stroke:#181818;stroke-width:1.0;"/><text fill="#000000" font-family="sans-serif" font-size="14" lengthAdjust="spacing" textLength="70" x="1471" y="84.3613">ページング</text><path d="M1418,78.6328 L1428,78.6328 C1443,78.6328 1443,78.6328 1458,78.6328 L1468,78.6328 " fill="none" style="stroke:#181818;stroke-width:1.0;"/><text fill="#000000" font-family="sans-serif" font-size="14" lengthAdjust="spacing" textLength="56" x="1471" y="103.9707">モーダル</text><path d="M1418,78.6328 L1428,78.6328 C1443,78.6328 1443,98.2422 1458,98.2422 L1468,98.2422 " fill="none" style="stroke:#181818;stroke-width:1.0;"/><path d="M1211,88.4375 L1221,88.4375 C1236,88.4375 1236,78.6328 1251,78.6328 L1261,78.6328 " fill="none" style="stroke:#181818;stroke-width:1.0;"/><text fill="#000000" font-family="sans-serif" font-size="14" lengthAdjust="spacing" textLength="42" x="1264" y="143.1895">テスト</text><text fill="#000000" font-family="sans-serif" font-size="14" lengthAdjust="spacing" textLength="25" x="1359" y="143.1895">Jest</text><text fill="#000000" font-family="sans-serif" font-size="14" lengthAdjust="spacing" textLength="56" x="1437" y="123.5801">書籍購入</text><path d="M1384,137.4609 L1394,137.4609 C1409,137.4609 1409,117.8516 1424,117.8516 L1434,117.8516 " fill="none" style="stroke:#181818;stroke-width:1.0;"/><text fill="#000000" font-family="sans-serif" font-size="14" lengthAdjust="spacing" textLength="54" x="1437" y="143.1895">Ajax部分</text><path d="M1384,137.4609 L1394,137.4609 C1409,137.4609 1409,137.4609 1424,137.4609 L1434,137.4609 " fill="none" style="stroke:#181818;stroke-width:1.0;"/><text fill="#000000" font-family="sans-serif" font-size="14" lengthAdjust="spacing" textLength="90" x="1437" y="162.7988">Validation部分</text><path d="M1384,137.4609 L1394,137.4609 C1409,137.4609 1409,157.0703 1424,157.0703 L1434,157.0703 " fill="none" style="stroke:#181818;stroke-width:1.0;"/><path d="M1306,137.4609 L1316,137.4609 C1331,137.4609 1331,137.4609 1346,137.4609 L1356,137.4609 " fill="none" style="stroke:#181818;stroke-width:1.0;"/><path d="M1211,88.4375 L1221,88.4375 C1236,88.4375 1236,137.4609 1251,137.4609 L1261,137.4609 " fill="none" style="stroke:#181818;stroke-width:1.0;"/><path d="M1032,88.4375 L1042,88.4375 C1057,88.4375 1057,88.4375 1072,88.4375 L1082,88.4375 " fill="none" style="stroke:#181818;stroke-width:1.0;"/><text fill="#000000" font-family="sans-serif" font-size="14" lengthAdjust="spacing" textLength="84" x="763" y="94.166">サーバサイド</text><text fill="#000000" font-family="sans-serif" font-size="14" lengthAdjust="spacing" textLength="43" x="667" y="30.4355">Gradle</text><text fill="#000000" font-family="sans-serif" font-size="14" lengthAdjust="spacing" textLength="126" x="488" y="30.4355">マルチプロジェクト</text><text fill="#000000" font-family="sans-serif" font-size="14" lengthAdjust="spacing" textLength="98" x="337" y="30.4355">ドライバアプリ</text><path d="M488,24.707 L478,24.707 C463,24.707 463,24.707 448,24.707 L438,24.707 " fill="none" style="stroke:#181818;stroke-width:1.0;"/><path d="M667,24.707 L657,24.707 C642,24.707 642,24.707 627,24.707 L617,24.707 " fill="none" style="stroke:#181818;stroke-width:1.0;"/><path d="M763,88.4375 L753,88.4375 C738,88.4375 738,24.707 723,24.707 L713,24.707 " fill="none" style="stroke:#181818;stroke-width:1.0;"/><text fill="#000000" font-family="sans-serif" font-size="14" lengthAdjust="spacing" textLength="29" x="681" y="84.3613">Java</text><text fill="#000000" font-family="sans-serif" font-size="14" lengthAdjust="spacing" textLength="74" x="554" y="84.3613">Spring Boot</text><text fill="#000000" font-family="sans-serif" font-size="14" lengthAdjust="spacing" textLength="95" x="406" y="50.0449">Spring Session</text><text fill="#000000" font-family="sans-serif" font-size="14" lengthAdjust="spacing" textLength="168" x="185" y="50.0449">セッション格納先テーブル</text><path d="M406,44.3164 L396,44.3164 C381,44.3164 381,44.3164 366,44.3164 L356,44.3164 " fill="none" style="stroke:#181818;stroke-width:1.0;"/><path d="M554,78.6328 L544,78.6328 C529,78.6328 529,44.3164 514,44.3164 L504,44.3164 " fill="none" style="stroke:#181818;stroke-width:1.0;"/><text fill="#000000" font-family="sans-serif" font-size="14" lengthAdjust="spacing" textLength="96" x="405" y="69.6543">Spring Security</text><text fill="#000000" font-family="sans-serif" font-size="14" lengthAdjust="spacing" textLength="168" x="184" y="69.6543">外部アプリケーション連携</text><path d="M405,63.9258 L395,63.9258 C380,63.9258 380,63.9258 365,63.9258 L355,63.9258 " fill="none" style="stroke:#181818;stroke-width:1.0;"/><path d="M554,78.6328 L544,78.6328 C529,78.6328 529,63.9258 514,63.9258 L504,63.9258 " fill="none" style="stroke:#181818;stroke-width:1.0;"/><text fill="#000000" font-family="sans-serif" font-size="14" lengthAdjust="spacing" textLength="99" x="402" y="103.9707">Bean Validation</text><text fill="#000000" font-family="sans-serif" font-size="14" lengthAdjust="spacing" textLength="84" x="265" y="89.2637">相関チェック</text><path d="M402,98.2422 L392,98.2422 C377,98.2422 377,83.5352 362,83.5352 L352,83.5352 " fill="none" style="stroke:#181818;stroke-width:1.0;"/><text fill="#000000" font-family="sans-serif" font-size="14" lengthAdjust="spacing" textLength="216" x="133" y="108.873">クライアント側Validationとの両立</text><text fill="#000000" font-family="sans-serif" font-size="14" lengthAdjust="spacing" textLength="26" x="54" y="99.0684">Ajax</text><path d="M133,103.1445 L123,103.1445 C108,103.1445 108,93.3398 93,93.3398 L83,93.3398 " fill="none" style="stroke:#181818;stroke-width:1.0;"/><text fill="#000000" font-family="sans-serif" font-size="14" lengthAdjust="spacing" textLength="70" x="10" y="118.6777">ページ遷移</text><path d="M133,103.1445 L123,103.1445 C108,103.1445 108,112.9492 93,112.9492 L83,112.9492 " fill="none" style="stroke:#181818;stroke-width:1.0;"/><path d="M402,98.2422 L392,98.2422 C377,98.2422 377,103.1445 362,103.1445 L352,103.1445 " fill="none" style="stroke:#181818;stroke-width:1.0;"/><path d="M554,78.6328 L544,78.6328 C529,78.6328 529,98.2422 514,98.2422 L504,98.2422 " fill="none" style="stroke:#181818;stroke-width:1.0;"/><path d="M681,78.6328 L671,78.6328 C656,78.6328 656,78.6328 641,78.6328 L631,78.6328 " fill="none" style="stroke:#181818;stroke-width:1.0;"/><path d="M763,88.4375 L753,88.4375 C738,88.4375 738,78.6328 723,78.6328 L713,78.6328 " fill="none" style="stroke:#181818;stroke-width:1.0;"/><text fill="#000000" font-family="sans-serif" font-size="14" lengthAdjust="spacing" textLength="74" x="636" y="138.2871">Thymeleanf</text><path d="M763,88.4375 L753,88.4375 C738,88.4375 738,132.5586 723,132.5586 L713,132.5586 " fill="none" style="stroke:#181818;stroke-width:1.0;"/><text fill="#000000" font-family="sans-serif" font-size="14" lengthAdjust="spacing" textLength="48" x="662" y="157.8965">Mybatis</text><path d="M763,88.4375 L753,88.4375 C738,88.4375 738,152.168 723,152.168 L713,152.168 " fill="none" style="stroke:#181818;stroke-width:1.0;"/><path d="M900,88.4375 L890,88.4375 C875,88.4375 875,88.4375 860,88.4375 L850,88.4375 " fill="none" style="stroke:#181818;stroke-width:1.0;"/><!--MD5=[295a7831c9f66a284228ed58c6a78236]
@startmindmap Spring-Practice-2023
+ アプリケーション
++_ クライアントサイド
+++_ jQuery不使用
+++_ ライブラリ導入
++++_ Node.js
+++++_ クライアントサイド向けライブラリ導入
+++_ 画面の動作やレイアウト
++++_ テーブル
++++_ ページング
++++_ モーダル
+++_ テスト
++++_ Jest
+++++_ 書籍購入
+++++_ Ajax部分
+++++_ Validation部分

left side 

- -_ サーバサイド
- - -_ Gradle
- - - -_ マルチプロジェクト
- - - - -_ ドライバアプリ
- - -_ Java
- - - -_ Spring Boot
- - - - -_ Spring Session
- - - - - -_ セッション格納先テーブル
- - - - -_ Spring Security
- - - - - -_ 外部アプリケーション連携
- - - - -_ Bean Validation
- - - - - -_ 相関チェック
- - - - - -_ クライアント側Validationとの両立
- - - - - - -_ Ajax
- - - - - - -_ ページ遷移
- - -_ Thymeleanf
- - -_ Mybatis

@endmindmap

PlantUML version 1.2022.7(Tue Aug 23 02:01:30 JST 2022)
(GPL source distribution)
Java Runtime: Java(TM) SE Runtime Environment
JVM: Java HotSpot(TM) 64-Bit Server VM
Default Encoding: MS932
Language: ja
Country: JP
--></g></svg>