<?xml version="1.0" encoding="UTF-8" standalone="no"?><svg xmlns="http://www.w3.org/2000/svg" xmlns:xlink="http://www.w3.org/1999/xlink" contentStyleType="text/css" height="325px" preserveAspectRatio="none" style="width:1002px;height:325px;background:#FFFFFF;" version="1.1" viewBox="0 0 1002 325" width="1002px" zoomAndPan="magnify"><defs/><g><rect fill="#F1F1F1" height="37.6094" rx="12.5" ry="12.5" style="stroke:#181818;stroke-width:1.5;" width="132" x="10" y="143.168"/><text fill="#000000" font-family="sans-serif" font-size="14" lengthAdjust="spacing" textLength="112" x="20" y="167.7012">アプリケーション</text><text fill="#000000" font-family="sans-serif" font-size="14" lengthAdjust="spacing" textLength="84" x="195" y="94.166">クライアント</text><text fill="#000000" font-family="sans-serif" font-size="14" lengthAdjust="spacing" textLength="84" x="332" y="25.5332">jQuery不使用</text><path d="M279,88.4375 L289,88.4375 C304,88.4375 304,19.8047 319,19.8047 L329,19.8047 " fill="none" style="stroke:#181818;stroke-width:1.0;"/><text fill="#000000" font-family="sans-serif" font-size="14" lengthAdjust="spacing" textLength="98" x="332" y="45.1426">ライブラリ導入</text><text fill="#000000" font-family="sans-serif" font-size="14" lengthAdjust="spacing" textLength="47" x="483" y="45.1426">Node.js</text><text fill="#000000" font-family="sans-serif" font-size="14" lengthAdjust="spacing" textLength="252" x="583" y="45.1426">クライアントサイド向けライブラリ導入</text><path d="M530,39.4141 L540,39.4141 C555,39.4141 555,39.4141 570,39.4141 L580,39.4141 " fill="none" style="stroke:#181818;stroke-width:1.0;"/><path d="M430,39.4141 L440,39.4141 C455,39.4141 455,39.4141 470,39.4141 L480,39.4141 " fill="none" style="stroke:#181818;stroke-width:1.0;"/><path d="M279,88.4375 L289,88.4375 C304,88.4375 304,39.4141 319,39.4141 L329,39.4141 " fill="none" style="stroke:#181818;stroke-width:1.0;"/><text fill="#000000" font-family="sans-serif" font-size="14" lengthAdjust="spacing" textLength="154" x="332" y="84.3613">画面の動作やレイアウト</text><text fill="#000000" font-family="sans-serif" font-size="14" lengthAdjust="spacing" textLength="56" x="539" y="64.752">テーブル</text><path d="M486,78.6328 L496,78.6328 C511,78.6328 511,59.0234 526,59.0234 L536,59.0234 " fill="none" style="stroke:#181818;stroke-width:1.0;"/><text fill="#000000" font-family="sans-serif" font-size="14" lengthAdjust="spacing" textLength="70" x="539" y="84.3613">ページング</text><path d="M486,78.6328 L496,78.6328 C511,78.6328 511,78.6328 526,78.6328 L536,78.6328 " fill="none" style="stroke:#181818;stroke-width:1.0;"/><text fill="#000000" font-family="sans-serif" font-size="14" lengthAdjust="spacing" textLength="56" x="539" y="103.9707">モーダル</text><path d="M486,78.6328 L496,78.6328 C511,78.6328 511,98.2422 526,98.2422 L536,98.2422 " fill="none" style="stroke:#181818;stroke-width:1.0;"/><path d="M279,88.4375 L289,88.4375 C304,88.4375 304,78.6328 319,78.6328 L329,78.6328 " fill="none" style="stroke:#181818;stroke-width:1.0;"/><text fill="#000000" font-family="sans-serif" font-size="14" lengthAdjust="spacing" textLength="42" x="332" y="143.1895">テスト</text><text fill="#000000" font-family="sans-serif" font-size="14" lengthAdjust="spacing" textLength="25" x="427" y="143.1895">Jest</text><text fill="#000000" font-family="sans-serif" font-size="14" lengthAdjust="spacing" textLength="56" x="505" y="123.5801">書籍購入</text><path d="M452,137.4609 L462,137.4609 C477,137.4609 477,117.8516 492,117.8516 L502,117.8516 " fill="none" style="stroke:#181818;stroke-width:1.0;"/><text fill="#000000" font-family="sans-serif" font-size="14" lengthAdjust="spacing" textLength="54" x="505" y="143.1895">Ajax部分</text><path d="M452,137.4609 L462,137.4609 C477,137.4609 477,137.4609 492,137.4609 L502,137.4609 " fill="none" style="stroke:#181818;stroke-width:1.0;"/><text fill="#000000" font-family="sans-serif" font-size="14" lengthAdjust="spacing" textLength="90" x="505" y="162.7988">Validation部分</text><path d="M452,137.4609 L462,137.4609 C477,137.4609 477,157.0703 492,157.0703 L502,157.0703 " fill="none" style="stroke:#181818;stroke-width:1.0;"/><path d="M374,137.4609 L384,137.4609 C399,137.4609 399,137.4609 414,137.4609 L424,137.4609 " fill="none" style="stroke:#181818;stroke-width:1.0;"/><path d="M279,88.4375 L289,88.4375 C304,88.4375 304,137.4609 319,137.4609 L329,137.4609 " fill="none" style="stroke:#181818;stroke-width:1.0;"/><path d="M142,161.9727 L152,161.9727 C167,161.9727 167,88.4375 182,88.4375 L192,88.4375 " fill="none" style="stroke:#181818;stroke-width:1.0;"/><text fill="#000000" font-family="sans-serif" font-size="14" lengthAdjust="spacing" textLength="42" x="195" y="246.1387">サーバ</text><text fill="#000000" font-family="sans-serif" font-size="14" lengthAdjust="spacing" textLength="43" x="290" y="182.4082">Gradle</text><text fill="#000000" font-family="sans-serif" font-size="14" lengthAdjust="spacing" textLength="126" x="386" y="182.4082">マルチプロジェクト</text><text fill="#000000" font-family="sans-serif" font-size="14" lengthAdjust="spacing" textLength="98" x="565" y="182.4082">ドライバアプリ</text><path d="M512,176.6797 L522,176.6797 C537,176.6797 537,176.6797 552,176.6797 L562,176.6797 " fill="none" style="stroke:#181818;stroke-width:1.0;"/><path d="M333,176.6797 L343,176.6797 C358,176.6797 358,176.6797 373,176.6797 L383,176.6797 " fill="none" style="stroke:#181818;stroke-width:1.0;"/><path d="M237,240.4102 L247,240.4102 C262,240.4102 262,176.6797 277,176.6797 L287,176.6797 " fill="none" style="stroke:#181818;stroke-width:1.0;"/><text fill="#000000" font-family="sans-serif" font-size="14" lengthAdjust="spacing" textLength="29" x="290" y="236.334">Java</text><text fill="#000000" font-family="sans-serif" font-size="14" lengthAdjust="spacing" textLength="74" x="372" y="236.334">Spring Boot</text><text fill="#000000" font-family="sans-serif" font-size="14" lengthAdjust="spacing" textLength="95" x="499" y="202.0176">Spring Session</text><text fill="#000000" font-family="sans-serif" font-size="14" lengthAdjust="spacing" textLength="168" x="647" y="202.0176">セッション格納先テーブル</text><path d="M594,196.2891 L604,196.2891 C619,196.2891 619,196.2891 634,196.2891 L644,196.2891 " fill="none" style="stroke:#181818;stroke-width:1.0;"/><path d="M446,230.6055 L456,230.6055 C471,230.6055 471,196.2891 486,196.2891 L496,196.2891 " fill="none" style="stroke:#181818;stroke-width:1.0;"/><text fill="#000000" font-family="sans-serif" font-size="14" lengthAdjust="spacing" textLength="96" x="499" y="221.627">Spring Security</text><text fill="#000000" font-family="sans-serif" font-size="14" lengthAdjust="spacing" textLength="168" x="648" y="221.627">外部アプリケーション連携</text><path d="M595,215.8984 L605,215.8984 C620,215.8984 620,215.8984 635,215.8984 L645,215.8984 " fill="none" style="stroke:#181818;stroke-width:1.0;"/><path d="M446,230.6055 L456,230.6055 C471,230.6055 471,215.8984 486,215.8984 L496,215.8984 " fill="none" style="stroke:#181818;stroke-width:1.0;"/><text fill="#000000" font-family="sans-serif" font-size="14" lengthAdjust="spacing" textLength="99" x="499" y="255.9434">Bean Validation</text><text fill="#000000" font-family="sans-serif" font-size="14" lengthAdjust="spacing" textLength="84" x="651" y="241.2363">相関チェック</text><path d="M598,250.2148 L608,250.2148 C623,250.2148 623,235.5078 638,235.5078 L648,235.5078 " fill="none" style="stroke:#181818;stroke-width:1.0;"/><text fill="#000000" font-family="sans-serif" font-size="14" lengthAdjust="spacing" textLength="216" x="651" y="260.8457">クライアント側Validationとの両立</text><text fill="#000000" font-family="sans-serif" font-size="14" lengthAdjust="spacing" textLength="26" x="920" y="251.041">Ajax</text><path d="M867,255.1172 L877,255.1172 C892,255.1172 892,245.3125 907,245.3125 L917,245.3125 " fill="none" style="stroke:#181818;stroke-width:1.0;"/><text fill="#000000" font-family="sans-serif" font-size="14" lengthAdjust="spacing" textLength="70" x="920" y="270.6504">ページ遷移</text><path d="M867,255.1172 L877,255.1172 C892,255.1172 892,264.9219 907,264.9219 L917,264.9219 " fill="none" style="stroke:#181818;stroke-width:1.0;"/><path d="M598,250.2148 L608,250.2148 C623,250.2148 623,255.1172 638,255.1172 L648,255.1172 " fill="none" style="stroke:#181818;stroke-width:1.0;"/><path d="M446,230.6055 L456,230.6055 C471,230.6055 471,250.2148 486,250.2148 L496,250.2148 " fill="none" style="stroke:#181818;stroke-width:1.0;"/><path d="M319,230.6055 L329,230.6055 C344,230.6055 344,230.6055 359,230.6055 L369,230.6055 " fill="none" style="stroke:#181818;stroke-width:1.0;"/><path d="M237,240.4102 L247,240.4102 C262,240.4102 262,230.6055 277,230.6055 L287,230.6055 " fill="none" style="stroke:#181818;stroke-width:1.0;"/><text fill="#000000" font-family="sans-serif" font-size="14" lengthAdjust="spacing" textLength="66" x="290" y="290.2598">Thymeleaf</text><path d="M237,240.4102 L247,240.4102 C262,240.4102 262,284.5313 277,284.5313 L287,284.5313 " fill="none" style="stroke:#181818;stroke-width:1.0;"/><text fill="#000000" font-family="sans-serif" font-size="14" lengthAdjust="spacing" textLength="48" x="290" y="309.8691">Mybatis</text><path d="M237,240.4102 L247,240.4102 C262,240.4102 262,304.1406 277,304.1406 L287,304.1406 " fill="none" style="stroke:#181818;stroke-width:1.0;"/><path d="M142,161.9727 L152,161.9727 C167,161.9727 167,240.4102 182,240.4102 L192,240.4102 " fill="none" style="stroke:#181818;stroke-width:1.0;"/><!--MD5=[1fcac97f132d97f7fdc1aefaeff293c1]
@startmindmap Spring-Practice-2023
+ アプリケーション
++_ クライアント
+++_ jQuery不使用
+++_ ライブラリ導入
++++_ Node.js
+++++_ クライアントサイド向けライブラリ導入
+++_ 画面の動作やレイアウト
++++_ テーブル
++++_ ページング
++++_ モーダル
+++_ テスト
++++_ Jest
+++++_ 書籍購入
+++++_ Ajax部分
+++++_ Validation部分

++_ サーバ
+++_ Gradle
++++_ マルチプロジェクト
+++++_ ドライバアプリ
+++_ Java
++++_ Spring Boot
+++++_ Spring Session
++++++_ セッション格納先テーブル
+++++_ Spring Security
++++++_ 外部アプリケーション連携
+++++_ Bean Validation
++++++_ 相関チェック
++++++_ クライアント側Validationとの両立
+++++++_ Ajax
+++++++_ ページ遷移
+++_ Thymeleaf
+++_ Mybatis

@endmindmap

PlantUML version 1.2022.7(Tue Aug 23 02:01:30 JST 2022)
(GPL source distribution)
Java Runtime: Java(TM) SE Runtime Environment
JVM: Java HotSpot(TM) 64-Bit Server VM
Default Encoding: MS932
Language: ja
Country: JP
--></g></svg>